<?xml version="1.0" encoding="UTF-8"?>
<svg width="40px" height="40px" viewBox="0 0 40 40" version="1.1" xmlns="http://www.w3.org/2000/svg" xmlns:xlink="http://www.w3.org/1999/xlink">
    <title>Types/Water</title>
    <defs>
        <linearGradient x1="50%" y1="0%" x2="50%" y2="100%" id="linearGradient-1">
            <stop stop-color="#4A90DD" offset="0%"></stop>
            <stop stop-color="#6CBDE4" offset="100%"></stop>
        </linearGradient>
    </defs>
    <g id="Types/Water" stroke="none" stroke-width="1" fill="none" fill-rule="evenodd">
        <g id="Group" transform="translate(5.000000, 5.000000)">
            <rect id="Rectangle" fill="url(#linearGradient-1)" x="0" y="0" width="30" height="30" rx="15"></rect>
            <path d="M14.7305258,8.07802176 C14.9631213,7.92920254 15.272319,7.99711664 15.4211382,8.22971214 L15.4211382,8.22971214 L15.6790673,8.63494763 C18.5596891,13.1858992 20,16.3138472 20,18.0187917 C20,20.7698371 17.7614237,23 15,23 C12.2385763,23 10,20.7698371 10,18.0187917 C10,16.2637033 11.5262784,13.0006768 14.5788353,8.2297122 C14.617828,8.16876903 14.6695826,8.11701441 14.7305258,8.07802176 Z M12.0634415,18.0373204 C11.7739891,19.9110348 12.4750083,21.0329453 14.166499,21.4030518 C15.8579897,21.7731582 17.1860714,21.3145064 18.1507442,20.0270963 C16.7961859,20.5644462 15.558469,20.6499291 14.4375934,20.2835449 C13.3167178,19.9171608 12.5253338,19.1684193 12.0634415,18.0373204 Z" id="Oval-5" fill="#FFFFFF"></path>
        </g>
    </g>
</svg>