<?xml version="1.0" encoding="UTF-8"?>
<svg width="120px" height="40px" viewBox="0 0 120 40" version="1.1" xmlns="http://www.w3.org/2000/svg" xmlns:xlink="http://www.w3.org/1999/xlink">
    <title>Tag/Electric@2x</title>
    <g id="Tag/Electric" stroke="none" stroke-width="1" fill="none" fill-rule="evenodd">
        <g id="Group-4" transform="translate(5.000000, 5.000000)">
            <rect id="Rectangle" fill="#EDD53F" x="0" y="0" width="110" height="30" rx="15"></rect>
            <text id="ELECTRIC" font-family="Avenir-Heavy, Avenir" font-size="12" font-weight="600" fill="#FFFFFF">
                <tspan x="35.942" y="19">ELECTRIC</tspan>
            </text>
            <path d="M16.3788178,7 L21.0860217,7 C21.2788385,7 21.4491743,7.12558656 21.5061859,7.30978214 L23.8236132,14.7970245 C23.8954367,15.0290749 23.7655472,15.2754132 23.5334968,15.3472367 C23.4913783,15.3602731 23.4475389,15.3669025 23.4034489,15.3669025 L20.5221221,15.3669025 C20.4006664,15.3669025 20.3022071,15.4653618 20.3022071,15.5868175 C20.3022071,15.6071396 20.3050239,15.6273637 20.3105773,15.6469124 L21.7535531,20.7264493 C21.8199321,20.9601153 21.6843191,21.2033497 21.4506532,21.2697287 C21.2757144,21.3194246 21.0882311,21.2563306 20.9789318,21.1109796 L14.5295139,12.5342626 C14.3835226,12.3401171 14.4225594,12.0643817 14.6167049,11.9183904 C14.6929173,11.8610811 14.7856901,11.830092 14.8810455,11.830092 L17.1238249,11.830092 C17.2452806,11.830092 17.3437399,11.7316327 17.3437399,11.610177 C17.3437399,11.5856988 17.3396532,11.5613925 17.3316484,11.5382602 L15.9631709,7.58366354 C15.8837338,7.35410807 16.0054288,7.10362014 16.2349843,7.02418309 C16.2812488,7.00817338 16.3298616,7 16.3788178,7 Z" id="Path-5" fill="#FFFFFF"></path>
        </g>
    </g>
</svg>