<?xml version="1.0" encoding="UTF-8"?>
<svg width="120px" height="40px" viewBox="0 0 120 40" version="1.1" xmlns="http://www.w3.org/2000/svg" xmlns:xlink="http://www.w3.org/1999/xlink">
    <title>Tag/Fairy@2x</title>
    <g id="Tag/Fairy" stroke="none" stroke-width="1" fill="none" fill-rule="evenodd">
        <g id="Group-4" transform="translate(5.000000, 5.000000)">
            <rect id="Rectangle" fill="#EF97E6" x="0" y="0" width="110" height="30" rx="15"></rect>
            <text id="FAIRY" font-family="Avenir-Heavy, Avenir" font-size="12" font-weight="600" fill="#FFFFFF">
                <tspan x="46.496" y="19">FAIRY</tspan>
            </text>
            <path d="M21.6164055,7.02979823 C21.6571099,7.05206019 21.690577,7.08552731 21.7128389,7.12623169 L23.596,10.57 L25.7298853,9.95246959 C25.8585647,9.91515807 25.9931269,9.98922637 26.0304384,10.1179057 C26.0433592,10.1624666 26.0432306,10.2097981 26.0300678,10.2542881 L25.399,12.387 L28.8737683,14.2871611 C28.991316,14.35145 29.0344907,14.4988578 28.9702018,14.6164055 C28.9479398,14.6571099 28.9144727,14.690577 28.8737683,14.7128389 L25.43,16.595 L26.0300678,18.6220707 C26.0680782,18.7505454 25.9947424,18.8855082 25.8662677,18.9235186 C25.8217777,18.9366814 25.7744462,18.93681 25.7298853,18.9238893 L23.654,18.322 L21.7128389,21.8737683 C21.64855,21.991316 21.5011422,22.0344907 21.3835945,21.9702018 C21.3428901,21.9479398 21.309423,21.9144727 21.2871611,21.8737683 L19.344,18.322 L17.2701147,18.9238893 C17.1414353,18.9612008 17.0068731,18.8871325 16.9695616,18.7584531 C16.9566408,18.7138922 16.9567694,18.6665607 16.9699322,18.6220707 L17.569,16.595 L14.1262317,14.7128389 C14.008684,14.64855 13.9655093,14.5011422 14.0297982,14.3835945 C14.0520602,14.3428901 14.0855273,14.309423 14.1262317,14.2871611 L17.6,12.387 L16.9699322,10.2542881 C16.9319218,10.1258134 17.0052576,9.99085062 17.1337323,9.95284023 C17.1782223,9.93967747 17.2255538,9.93954884 17.2701147,9.95246959 L19.403,10.57 L21.2871611,7.12623169 C21.35145,7.00868399 21.4988578,6.96550926 21.6164055,7.02979823 Z M21.6367427,12.0684545 C21.5191951,12.0041655 21.3717873,12.0473403 21.3074983,12.164888 L21.3074983,12.164888 L20.5499712,13.5499712 L19.164888,14.3074983 C19.1241836,14.3297603 19.0907165,14.3632274 19.0684545,14.4039318 C19.0041655,14.5214795 19.0473403,14.6688872 19.164888,14.7331762 L19.164888,14.7331762 L20.5499712,15.4907034 L21.3074983,16.8757866 C21.3297603,16.916491 21.3632274,16.9499581 21.4039318,16.97222 C21.5214795,17.036509 21.6688872,16.9933343 21.7331762,16.8757866 L21.7331762,16.8757866 L22.4907034,15.4907034 L23.8757866,14.7331762 C23.916491,14.7109142 23.9499581,14.6774471 23.97222,14.6367427 C24.036509,14.5191951 23.9933343,14.3717873 23.8757866,14.3074983 L23.8757866,14.3074983 L22.4907034,13.5499712 L21.7331762,12.164888 C21.7109142,12.1241836 21.6774471,12.0907165 21.6367427,12.0684545 Z" id="Star" fill="#FFFFFF"></path>
        </g>
    </g>
</svg>