<?xml version="1.0" encoding="UTF-8"?>
<svg width="120px" height="40px" viewBox="0 0 120 40" version="1.1" xmlns="http://www.w3.org/2000/svg" xmlns:xlink="http://www.w3.org/1999/xlink">
    <title>Tag/Grass</title>
    <g id="Tag/Grass" stroke="none" stroke-width="1" fill="none" fill-rule="evenodd">
        <g id="Group-4" transform="translate(5.000000, 5.000000)">
            <rect id="Rectangle" fill="#5DBE62" x="0" y="0" width="110" height="30" rx="15"></rect>
            <text id="GRASS" font-family="Avenir-Heavy, Avenir" font-size="12" font-weight="600" fill="#FFFFFF">
                <tspan x="43.832" y="19">GRASS</tspan>
            </text>
            <path d="M22.7831542,7.13137211 C27.4291775,10.7972048 29.7521892,13.7569324 29.7521892,16.010555 C29.7521892,19.0129048 27.5905214,21.51037 24.7386663,22.0314701 L24.4302318,19.0049254 L26.1335345,16.3636314 L24.183023,17.9595948 L24.1625176,15.6852578 L25.1642923,14.1214711 L23.8495395,14.8354016 L23.0340397,11.9912185 L23.2095789,15.0523779 L21.8661907,14.82331 L23.3604615,15.9253019 L23.4884165,18.0631101 L21.5892799,17.0956613 L23.4953922,19.0017737 L23.822555,22.1273721 L23.6313721,22.1313721 C20.3260589,22.1313721 17.6326659,19.5114305 17.5145918,16.234946 L17.510555,16.010555 C17.510555,13.7569324 19.2680881,10.7972048 22.7831542,7.13137211 Z" id="Oval" fill="#FFFFFF" transform="translate(23.631372, 14.631372) rotate(45.000000) translate(-23.631372, -14.631372) "></path>
        </g>
    </g>
</svg>