<?xml version="1.0" encoding="UTF-8"?>
<svg width="120px" height="40px" viewBox="0 0 120 40" version="1.1" xmlns="http://www.w3.org/2000/svg" xmlns:xlink="http://www.w3.org/1999/xlink">
    <title>Tag/Ground</title>
    <g id="Tag/Ground" stroke="none" stroke-width="1" fill="none" fill-rule="evenodd">
        <g id="Group-4" transform="translate(5.000000, 5.000000)">
            <rect id="Rectangle" fill="#D78555" x="0" y="0" width="110" height="30" rx="15"></rect>
            <text id="GROUND" font-family="Avenir-Heavy, Avenir" font-size="12" font-weight="600" fill="#FFFFFF">
                <tspan x="36.392" y="19">GROUND</tspan>
            </text>
            <path d="M19.0288752,12.2871307 C19.0522309,12.2871307 19.0754081,12.2911988 19.0973678,12.2991525 C19.2018065,12.3369799 19.2558056,12.4523094 19.2179782,12.5567481 L19.2179782,12.5567481 L16.5700905,19.8673678 C16.541257,19.946975 16.4656555,20 16.3809875,20 L16.3809875,20 L14.1977852,20 C14.1736935,20 14.1497978,19.9956716 14.1272369,19.9872209 C14.0232164,19.9482582 13.9704767,19.8323474 14.0094394,19.7283269 L14.0094394,19.7283269 L16.7477646,12.4177072 C16.777182,12.3391702 16.8522447,12.2871307 16.9361103,12.2871307 L16.9361103,12.2871307 Z M25.1219691,9 C25.2075244,9 25.2837156,9.05412494 25.3118819,9.13491089 L25.3118819,9.13491089 L28.9918963,19.6898256 C28.9993181,19.7111126 29.0031082,19.7334959 29.0031082,19.7560396 C29.0031082,19.8671177 28.9130616,19.9571643 28.8019834,19.9571643 L28.8019834,19.9571643 L17.3059002,19.9571643 C17.3008849,19.9571643 17.2959064,19.9563094 17.2911785,19.9546361 C17.2682045,19.9465056 17.2561716,19.9212904 17.2643022,19.8983164 L17.2643022,19.8983164 L21.0738298,9.13402409 C21.1022582,9.05369594 21.1782209,9 21.2634311,9 L21.2634311,9 Z" id="Path-6" fill="#FFFFFF"></path>
        </g>
    </g>
</svg>