<?xml version="1.0" encoding="UTF-8"?>
<svg width="120px" height="40px" viewBox="0 0 120 40" version="1.1" xmlns="http://www.w3.org/2000/svg" xmlns:xlink="http://www.w3.org/1999/xlink">
    <title>Tag/Normal</title>
    <g id="Tag/Normal" stroke="none" stroke-width="1" fill="none" fill-rule="evenodd">
        <g id="Group-4" transform="translate(5.000000, 5.000000)">
            <rect id="Rectangle" fill="#9A9DA1" x="0" y="0" width="110" height="30" rx="15"></rect>
            <text id="NORMAL" font-family="Avenir-Heavy, Avenir" font-size="12" font-weight="600" fill="#FFFFFF">
                <tspan x="36.944" y="19">NORMAL</tspan>
            </text>
            <path d="M21,8 C24.8659932,8 28,11.1340068 28,15 C28,18.8659932 24.8659932,22 21,22 C17.1340068,22 14,18.8659932 14,15 C14,11.1340068 17.1340068,8 21,8 Z M21,11 C18.790861,11 17,12.790861 17,15 C17,17.209139 18.790861,19 21,19 C23.209139,19 25,17.209139 25,15 C25,12.790861 23.209139,11 21,11 Z" id="Oval-11" fill="#FFFFFF"></path>
        </g>
    </g>
</svg>