<?xml version="1.0" encoding="UTF-8"?>
<svg width="120px" height="40px" viewBox="0 0 120 40" version="1.1" xmlns="http://www.w3.org/2000/svg" xmlns:xlink="http://www.w3.org/1999/xlink">
    <title>Tag/Poison@2x</title>
    <g id="Tag/Poison" stroke="none" stroke-width="1" fill="none" fill-rule="evenodd">
        <g id="Group-4" transform="translate(5.000000, 5.000000)">
            <rect id="Rectangle" fill="#B563CE" x="0" y="0" width="110" height="30" rx="15"></rect>
            <text id="POISON" font-family="Avenir-Heavy, Avenir" font-size="12" font-weight="600" fill="#FFFFFF">
                <tspan x="39.95" y="19">POISON</tspan>
            </text>
            <path d="M21.5,7 C25.6421356,7 29,9.96371346 29,13.6196393 C29,15.5658413 28.0484224,17.3158787 26.5335172,18.527075 C26.5972721,18.7866086 26.6315789,19.0640015 26.6315789,19.3521443 C26.6315789,20.8145146 25.7479304,22 24.6578947,22 C24.011838,22 23.4382819,21.5835564 23.0782355,20.9398439 C22.7196128,21.5835564 22.1460568,22 21.5,22 C20.7912876,22 20.1698203,21.4988648 19.8217401,20.7463189 C19.4749166,21.4988648 18.8534493,22 18.1447368,22 C17.0547012,22 16.1710526,20.8145146 16.1710526,19.3521443 C16.1710526,19.0141793 16.218249,18.6910029 16.3042818,18.3938307 C14.8843327,17.1896897 14,15.4958156 14,13.6196393 C14,9.96371346 17.3578644,7 21.5,7 Z M21.4013158,10.3901711 C18.9487355,10.3901711 16.9605263,11.8948256 16.9605263,13.750911 C16.9605263,15.6069965 18.9487355,17.111651 21.4013158,17.111651 C23.8538961,17.111651 25.8421053,15.6069965 25.8421053,13.750911 C25.8421053,11.8948256 23.8538961,10.3901711 21.4013158,10.3901711 Z" id="Oval-3" fill="#FFFFFF"></path>
        </g>
    </g>
</svg>