<?xml version="1.0" encoding="UTF-8"?>
<svg width="120px" height="40px" viewBox="0 0 120 40" version="1.1" xmlns="http://www.w3.org/2000/svg" xmlns:xlink="http://www.w3.org/1999/xlink">
    <title>Tag/Bug@3x</title>
    <g id="Tag/Bug" stroke="none" stroke-width="1" fill="none" fill-rule="evenodd">
        <g id="Group-4" transform="translate(5.000000, 5.000000)">
            <rect id="Rectangle" fill="#9DC130" x="0" y="0" width="110" height="30" rx="15"></rect>
            <text id="BUG" font-family="Avenir-Heavy, Avenir" font-size="12" font-weight="600" fill="#FFFFFF">
                <tspan x="50.612" y="19">BUG</tspan>
            </text>
            <path d="M16.3000677,11.275677 C16.900369,12.0151919 17.3988796,12.526615 17.7955996,12.8099462 C18.1923196,13.0932773 18.8113817,13.3800072 19.6527857,13.6701356 C20.4236588,15.4705762 20.6536302,17.1815265 20.3427,18.8029865 C20.0317698,20.4244466 19.243012,21.8747331 17.9764267,23.1538462 C15.3254756,21.6031724 14,19.5395861 14,16.9630875 C14,14.3865888 14.7666892,12.4907853 16.3000677,11.275677 Z M25.6999323,11.275677 C27.2333108,12.4907853 28,14.3865888 28,16.9630875 C28,19.5395861 26.6745244,21.6031724 24.0235733,23.1538462 C22.756988,21.8747331 21.9682302,20.4244466 21.6573,18.8029865 C21.3463698,17.1815265 21.5763412,15.4705762 22.3472143,13.6701356 C23.1886183,13.3800072 23.8076804,13.0932773 24.2044004,12.8099462 C24.6011204,12.526615 25.099631,12.0151919 25.6999323,11.275677 Z M24.3991647,7.13675652 C24.73843,7.37431263 24.8208815,7.84191874 24.5833254,8.18118402 L23.3828651,9.89467793 C23.820918,10.03818 24.2583716,10.2204146 24.6952259,10.4413818 C23.8187426,11.9490342 22.6371889,12.7028603 21.1505648,12.7028603 C19.6639408,12.7028603 18.3924482,12.0002722 17.3360869,10.595096 C17.7858476,10.3080704 18.2438645,10.077258 18.7101375,9.90265884 L17.4073258,8.35175983 C17.1411048,8.03448995 17.182488,7.56147708 17.4997579,7.29525604 C17.8170278,7.02903499 18.2900407,7.07041825 18.5562617,7.38768814 L20.249143,9.40518545 C20.280908,9.44304152 20.3082937,9.48311487 20.3313539,9.52478967 L20.629407,9.50356089 L20.629407,9.50356089 L20.9422529,9.49592778 C21.2296803,9.49592778 21.5168523,9.51243553 21.8037689,9.54545103 L21.8441343,9.47828171 L21.8441343,9.47828171 L23.3547372,7.32091727 C23.5922933,6.98165199 24.0598994,6.89920042 24.3991647,7.13675652 Z" id="Path-3" fill="#FFFFFF"></path>
        </g>
    </g>
</svg>