<?xml version="1.0" encoding="UTF-8"?>
<svg width="120px" height="40px" viewBox="0 0 120 40" version="1.1" xmlns="http://www.w3.org/2000/svg" xmlns:xlink="http://www.w3.org/1999/xlink">
    <title>Tag/Fight@3x</title>
    <g id="Tag/Fight" stroke="none" stroke-width="1" fill="none" fill-rule="evenodd">
        <g id="Group-4" transform="translate(5.000000, 5.000000)">
            <rect id="Rectangle" fill="#D94256" x="0" y="0" width="110" height="30" rx="15"></rect>
            <text id="FIGHT" font-family="Avenir-Heavy, Avenir" font-size="12" font-weight="600" fill="#FFFFFF">
                <tspan x="45.83" y="19">FIGHT</tspan>
            </text>
            <path d="M17.6909091,7 C18.2734701,7 18.7857105,7.30107864 19.0805153,7.75612111 L19.2181818,7.75 L19.2181818,7.75 C19.3254129,7.75 19.4302615,7.76020091 19.5318101,7.77968525 C19.83335,7.45432587 20.2655409,7.25 20.7454545,7.25 C21.4267819,7.25 22.0119233,7.66182124 22.2655366,8.25012165 L22.2727273,8.25 C22.3904861,8.25 22.5053716,8.26230224 22.6161686,8.28569161 C22.8800444,8.10561702 23.2004154,8 23.5454545,8 C24.2607528,8 24.8700344,8.4539118 25.1009703,9.08940655 C25.2263417,9.13220394 25.3452104,9.19002851 25.4551891,9.26051141 C25.7112027,9.09561302 26.0171628,9 26.3454545,9 C27.2592348,9 28,9.74076523 28,10.6545455 L28,15.6491225 L27.9998419,15.6683003 C27.9742721,19.1691867 24.8501324,22 21,22 C17.1340068,22 14,19.1458153 14,15.625 C14,13.9301991 14.7261909,12.3898653 15.9106541,11.2479961 C15.8997618,13.4985067 15.9541705,14.6091295 16.0745348,14.5816831 C16.3287446,14.5237163 16.3330147,12.4123021 16.0873451,8.24744073 C16.2686606,7.53014649 16.9178737,7 17.6909091,7 Z" id="Oval-9" fill="#FFFFFF"></path>
        </g>
    </g>
</svg>