<?xml version="1.0" encoding="UTF-8"?>
<svg width="120px" height="40px" viewBox="0 0 120 40" version="1.1" xmlns="http://www.w3.org/2000/svg" xmlns:xlink="http://www.w3.org/1999/xlink">
    <title>Tag/Ice@2x</title>
    <g id="Tag/Ice" stroke="none" stroke-width="1" fill="none" fill-rule="evenodd">
        <g id="Group-4" transform="translate(5.000000, 5.000000)">
            <rect id="Rectangle" fill="#7ED4C9" x="0" y="0" width="110" height="30" rx="15"></rect>
            <text id="ICE" font-family="Avenir-Heavy, Avenir" font-size="12" font-weight="600" fill="#FFFFFF">
                <tspan x="54.056" y="19">ICE</tspan>
            </text>
            <g id="Group-2" transform="translate(14.000000, 6.000000)" fill="#FFFFFF">
                <polygon id="Polygon" transform="translate(10.740132, 4.617434) rotate(31.000000) translate(-10.740132, -4.617434) " points="10.6895402 0.819281928 13.091908 4.71627283 10.6566447 8.41558512 8.38835639 4.73609077"></polygon>
                <polygon id="Polygon" transform="translate(12.703369, 8.639453) rotate(89.000000) translate(-12.703369, -8.639453) " points="12.6819262 4.68640375 14.8733951 8.67777607 12.5403403 12.5925013 10.5333438 8.60405948"></polygon>
                <polygon id="Polygon-Copy" transform="translate(4.092980, 8.639453) rotate(89.000000) translate(-4.092980, -8.639453) " points="4.07153662 4.68640375 6.26300544 8.67777607 3.92995072 12.5925013 1.92295423 8.60405948"></polygon>
                <polygon id="Polygon" transform="translate(6.103762, 4.511175) rotate(-32.000000) translate(-6.103762, -4.511175) " points="6.05317013 0.71302349 8.45553794 4.61001439 6.02027457 8.30932669 3.7519863 4.62983233"></polygon>
                <polygon id="Polygon" transform="translate(10.708997, 12.517570) rotate(148.000000) translate(-10.708997, -12.517570) " points="10.6584053 8.71941836 13.0607731 12.6164093 10.6255097 16.3157216 8.35722144 12.6362272"></polygon>
                <polygon id="Polygon" transform="translate(6.102653, 12.471272) rotate(211.000000) translate(-6.102653, -12.471272) " points="6.0520614 8.67312005 8.4544292 12.570111 6.01916584 16.2694232 3.75087756 12.5899289"></polygon>
            </g>
        </g>
    </g>
</svg>