<?xml version="1.0" encoding="UTF-8"?>
<svg width="120px" height="40px" viewBox="0 0 120 40" version="1.1" xmlns="http://www.w3.org/2000/svg" xmlns:xlink="http://www.w3.org/1999/xlink">
    <title>Tag/Rock@3x</title>
    <g id="Tag/Rock" stroke="none" stroke-width="1" fill="none" fill-rule="evenodd">
        <g id="Group-4" transform="translate(5.000000, 5.000000)">
            <rect id="Rectangle" fill="#CEC18C" x="0" y="0" width="110" height="30" rx="15"></rect>
            <text id="ROCK" font-family="Avenir-Heavy, Avenir" font-size="12" font-weight="600" fill="#FFFFFF">
                <tspan x="46.502" y="19">ROCK</tspan>
            </text>
            <path d="M23.994763,16.0289582 C24.0784926,15.9726924 24.1919814,15.9949563 24.2482471,16.0786859 L24.2482471,16.0786859 L25.5402498,18.0013275 C25.5953034,18.0832533 25.5753126,18.1940961 25.4951075,18.2516275 L25.4951075,18.2516275 L21.7388605,20.9460003 C21.6915423,20.9799419 21.6308759,20.9892874 21.5755366,20.9711598 L21.5755366,20.9711598 L18.3270519,19.907049 L23.9934943,16.0298184 C23.993916,16.0295299 23.9943389,16.0292432 23.994763,16.0289582 Z M24.4174895,10.025577 L24.430915,10.0270729 C24.5306916,10.0419431 24.5995218,10.1348828 24.5846516,10.2346594 L24.5846516,10.2346594 L23.8948592,14.8630405 C23.8874078,14.9130378 23.8595702,14.9577117 23.8179712,14.9864306 L23.8179712,14.9864306 L17.1321679,19.6021331 C17.0852279,19.6345392 17.0258442,19.643157 16.9716289,19.6254304 L16.9716289,19.6254304 L14.1258915,18.6949695 C14.0507964,18.6704159 14,18.6003644 14,18.5213572 L14,18.5213572 L14,15.5984606 C14,15.5558932 14.0148671,15.5146625 14.0420332,15.4818908 L14.0420332,15.4818908 L18.5106658,10.0911646 C18.5453672,10.0493027 18.5969149,10.0250775 18.6512895,10.0250775 L18.6512895,10.0250775 L24.4174895,10.025577 L24.4174895,10.025577 Z M25.85606,10 C25.9357471,10 26.0062374,10.0516595 26.0302365,10.1276468 L26.0302365,10.1276468 L27.9618054,16.2435092 C27.9847719,16.3162274 27.9601452,16.3955609 27.9000374,16.4424911 L27.9000374,16.4424911 L26.6610433,17.4098568 C26.6596229,17.4109657 26.6581863,17.4120536 26.6567337,17.41312 C26.5754181,17.4728214 26.4611012,17.4552996 26.4013998,17.3739839 L26.4013998,17.3739839 L24.8535633,15.2657685 C24.8242281,15.2258128 24.8123913,15.1756505 24.8207697,15.1267954 L24.8207697,15.1267954 L25.6754923,10.1428775 C25.6896478,10.0603365 25.7612126,10 25.8449586,10 L25.8449586,10 Z" id="Path-8" fill="#FFFFFF"></path>
        </g>
    </g>
</svg>